<?xml version="1.0" standalone="no"?><!DOCTYPE svg PUBLIC "-//W3C//DTD SVG 1.1//EN" "http://www.w3.org/Graphics/SVG/1.1/DTD/svg11.dtd"><svg t="1683025348079" class="icon" viewBox="0 0 1024 1024" version="1.1" xmlns="http://www.w3.org/2000/svg" p-id="1004" xmlns:xlink="http://www.w3.org/1999/xlink" width="200" height="200"><path d="M116.363636 814.545455m46.545455 0l698.205091 0q46.545455 0 46.545454 46.545454l0 0q0 46.545455-46.545454 46.545455l-698.205091 0q-46.545455 0-46.545455-46.545455l0 0q0-46.545455 46.545455-46.545454Z" fill="#78B1EF" opacity=".8" p-id="1005"></path><path d="M256 116.363636h279.272727a93.090909 93.090909 0 0 1 93.090909 93.090909v651.636364a46.545455 46.545455 0 0 1-46.545454 46.545455h-372.363637a46.545455 46.545455 0 0 1-46.545454-46.545455v-651.636364a93.090909 93.090909 0 0 1 93.090909-93.090909z" fill="#1C7BF2" opacity=".8" p-id="1006"></path><path d="M279.272727 263.051636m46.545455 0l139.636363 0q46.545455 0 46.545455 46.545455l0 0q0 46.545455-46.545455 46.545454l-139.636363 0q-46.545455 0-46.545455-46.545454l0 0q0-46.545455 46.545455-46.545455Z" fill="#FFFFFF" p-id="1007"></path><path d="M279.272727 437.690182m46.545455 0l139.636363 0q46.545455 0 46.545455 46.545454l0 0q0 46.545455-46.545455 46.545455l-139.636363 0q-46.545455 0-46.545455-46.545455l0 0q0-46.545455 46.545455-46.545454Z" fill="#FFFFFF" p-id="1008"></path><path d="M279.272727 626.129455m46.545455 0l139.636363 0q46.545455 0 46.545455 46.545454l0 0q0 46.545455-46.545455 46.545455l-139.636363 0q-46.545455 0-46.545455-46.545455l0 0q0-46.545455 46.545455-46.545454Z" fill="#FFFFFF" p-id="1009"></path><path d="M768 500.363636m-93.090909 0a93.090909 93.090909 0 1 0 186.181818 0 93.090909 93.090909 0 1 0-186.181818 0Z" fill="#29CC7E" opacity=".8" p-id="1010"></path><path d="M861.114182 593.431273a93.090909 93.090909 0 0 0-93.090909-93.090909 93.090909 93.090909 0 0 0-93.090909 93.090909 92.695273 92.695273 0 0 0 46.545454 80.197818v187.438545a46.545455 46.545455 0 0 0 46.545455 46.545455 46.545455 46.545455 0 0 0 46.545454-46.545455v-187.438545a92.741818 92.741818 0 0 0 46.545455-80.197818z" fill="#29CC7E" opacity=".8" p-id="1011"></path></svg>